<?xml version="1.0" encoding="UTF-8" standalone="no"?>

<svg
   width="512"
   height="197.14038"
   viewBox="0 0 512 197.14038"
   version="1.1"
   id="svg1"
   xmlns="http://www.w3.org/2000/svg"
   xmlns:svg="http://www.w3.org/2000/svg">
  <defs
     id="defs1" />
  <g
     id="layer1"
     transform="translate(7.1525574e-6,-154.46457)">
    <path
       style="font-weight:bold;font-size:132.226px;font-family:Horizon;-inkscape-font-specification:'Horizon, Bold';stroke-width:11.019"
       d="M 137.26777,299.29449 H 98.400559 V 229.56594 H 62.115885 V 206.64591 H 173.55244 v 22.92003 h -36.28467 z m 105.04477,2.00147 q -34.34776,0 -50.5532,-14.1394 -14.33309,-12.52531 -14.33309,-34.08951 0,-21.62877 14.33309,-34.15408 16.20544,-14.1394 50.5532,-14.1394 19.56274,0 32.54,4.39031 12.97725,4.39032 20.33749,12.00881 7.4248,7.55393 10.13647,17.43214 h -41.57888 q -6.52091,-8.97433 -21.43508,-8.97433 -14.07483,0 -20.72487,8.07044 -5.29421,6.52091 -5.29421,15.36611 0,8.84519 5.29421,15.30154 6.65004,8.07043 20.72487,8.07043 11.36318,0 17.04476,-1.9369 5.74615,-2.00147 8.39325,-5.16508 h -15.17241 v -16.26999 h 52.74836 v 46.29201 h -16.14087 l -3.29274,-8.97432 q -15.43067,10.91122 -43.58035,10.91122 z m 207.57157,-2.00147 H 413.1475 q -2.51798,-3.48642 -3.551,-8.90975 -0.90388,-4.19663 -2.71166,-8.19957 -1.80778,-4.0675 -6.26266,-6.7146 -4.39032,-2.71166 -13.10638,-2.90535 h -25.24432 v 26.72927 h -38.86722 v -92.64858 h 63.20765 q 22.66178,0 36.54292,3.42186 13.94571,3.3573 20.3375,10.65297 6.39178,7.23111 6.39178,18.9171 0,9.74909 -4.45488,16.39913 -4.39031,6.65003 -13.94571,10.52384 9.23258,3.80925 11.94425,9.16802 2.77622,5.2942 3.42186,11.68599 0.64563,5.68158 3.03448,11.87967 z m -87.61263,-49.58474 22.20983,-0.0646 q 9.29714,0 14.65591,-0.83932 5.35877,-0.83933 7.87675,-2.25972 2.58253,-1.48496 3.29273,-3.22818 0.7102,-1.80778 0.7102,-3.68012 0,-1.87234 -0.7102,-3.68011 -0.7102,-1.80778 -3.29273,-3.22818 -2.51798,-1.48496 -7.87675,-2.32428 -5.35877,-0.83933 -14.65591,-0.83933 h -22.20983 z"
       id="text1"
       aria-label="TGR" />
    <rect
       style="fill:none;fill-opacity:1;stroke:#000000;stroke-width:10.2758;stroke-dasharray:none;stroke-opacity:1"
       id="rect1"
       width="501.72421"
       height="186.86459"
       x="5.1378927"
       y="159.60246" />
  </g>
</svg>
